<mxfile host="Electron" agent="Mozilla/5.0 (Windows NT 10.0; Win64; x64) AppleWebKit/537.36 (KHTML, like Gecko) draw.io/26.0.15 Chrome/132.0.6834.196 Electron/34.2.0 Safari/537.36" version="26.0.15">
  <diagram id="C5RBs43oDa-KdzZeNtuy" name="Page-1">
    <mxGraphModel dx="436" dy="435" grid="1" gridSize="10" guides="1" tooltips="1" connect="1" arrows="1" fold="1" page="1" pageScale="1" pageWidth="200" pageHeight="300" background="light-dark(#3C4253,#3C4253)" math="0" shadow="0">
      <root>
        <mxCell id="WIyWlLk6GJQsqaUBKTNV-0" />
        <mxCell id="WIyWlLk6GJQsqaUBKTNV-1" parent="WIyWlLk6GJQsqaUBKTNV-0" />
        <mxCell id="OEYN_-mT-tOgrQAeO-wg-25" style="edgeStyle=orthogonalEdgeStyle;shape=connector;rounded=1;orthogonalLoop=1;jettySize=auto;html=1;align=center;verticalAlign=middle;fontFamily=Helvetica;fontSize=11;fontColor=default;labelBorderColor=none;labelBackgroundColor=none;resizable=0;endArrow=classic;" parent="WIyWlLk6GJQsqaUBKTNV-1" source="euzbrQb_cGi0koqSvOMa-24" target="OEYN_-mT-tOgrQAeO-wg-24" edge="1">
          <mxGeometry relative="1" as="geometry" />
        </mxCell>
        <mxCell id="WiAifc5aEcJJbd3fLbBl-4" value="" style="edgeStyle=orthogonalEdgeStyle;rounded=0;orthogonalLoop=1;jettySize=auto;html=1;fontFamily=Helvetica;fontSize=11;fontColor=default;labelBorderColor=none;labelBackgroundColor=light-dark(#FFFFFF,#3C4253);resizable=0;" edge="1" parent="WIyWlLk6GJQsqaUBKTNV-1" source="euzbrQb_cGi0koqSvOMa-24" target="OEYN_-mT-tOgrQAeO-wg-24">
          <mxGeometry relative="1" as="geometry" />
        </mxCell>
        <mxCell id="WiAifc5aEcJJbd3fLbBl-5" value="TunnelCommand" style="edgeLabel;html=1;align=center;verticalAlign=middle;resizable=0;points=[];rounded=1;fontFamily=Helvetica;fontSize=11;fontColor=default;labelBorderColor=none;labelBackgroundColor=light-dark(#FFFFFF,#3C4253);fillColor=none;gradientColor=none;" vertex="1" connectable="0" parent="WiAifc5aEcJJbd3fLbBl-4">
          <mxGeometry x="0.036" y="3" relative="1" as="geometry">
            <mxPoint as="offset" />
          </mxGeometry>
        </mxCell>
        <mxCell id="euzbrQb_cGi0koqSvOMa-24" value="Daemon" style="rounded=1;arcSize=10;whiteSpace=wrap;html=1;align=center;labelBackgroundColor=none;" parent="WIyWlLk6GJQsqaUBKTNV-1" vertex="1">
          <mxGeometry x="350" y="275" width="100" height="40" as="geometry" />
        </mxCell>
        <mxCell id="OEYN_-mT-tOgrQAeO-wg-20" style="edgeStyle=orthogonalEdgeStyle;shape=connector;rounded=1;orthogonalLoop=1;jettySize=auto;html=1;entryX=0.5;entryY=0;entryDx=0;entryDy=0;align=center;verticalAlign=middle;fontFamily=Helvetica;fontSize=11;fontColor=default;labelBorderColor=none;labelBackgroundColor=none;resizable=0;endArrow=classic;" parent="WIyWlLk6GJQsqaUBKTNV-1" edge="1">
          <mxGeometry relative="1" as="geometry">
            <mxPoint x="320.0999999999999" y="149" as="sourcePoint" />
            <mxPoint x="320" y="219" as="targetPoint" />
          </mxGeometry>
        </mxCell>
        <mxCell id="WiAifc5aEcJJbd3fLbBl-6" value="Commands" style="edgeLabel;html=1;align=center;verticalAlign=middle;resizable=0;points=[];rounded=1;fontFamily=Helvetica;fontSize=11;fontColor=default;labelBorderColor=none;labelBackgroundColor=light-dark(#FFFFFF,#3C4253);fillColor=none;gradientColor=none;" vertex="1" connectable="0" parent="OEYN_-mT-tOgrQAeO-wg-20">
          <mxGeometry x="-0.3738" y="1" relative="1" as="geometry">
            <mxPoint as="offset" />
          </mxGeometry>
        </mxCell>
        <mxCell id="euzbrQb_cGi0koqSvOMa-27" value="" style="pointerEvents=1;shadow=0;dashed=0;html=1;aspect=fixed;labelPosition=center;verticalLabelPosition=bottom;verticalAlign=top;align=center;outlineConnect=0;shape=mxgraph.vvd.phone;rounded=1;labelBorderColor=none;labelBackgroundColor=none;textShadow=0;" parent="WIyWlLk6GJQsqaUBKTNV-1" vertex="1">
          <mxGeometry x="305.25" y="100" width="29.5" height="50" as="geometry" />
        </mxCell>
        <mxCell id="OEYN_-mT-tOgrQAeO-wg-22" style="edgeStyle=orthogonalEdgeStyle;shape=connector;rounded=1;orthogonalLoop=1;jettySize=auto;html=1;align=center;verticalAlign=middle;fontFamily=Helvetica;fontSize=11;fontColor=default;labelBorderColor=none;labelBackgroundColor=none;resizable=0;endArrow=classic;" parent="WIyWlLk6GJQsqaUBKTNV-1" source="euzbrQb_cGi0koqSvOMa-30" target="OEYN_-mT-tOgrQAeO-wg-14" edge="1">
          <mxGeometry relative="1" as="geometry" />
        </mxCell>
        <mxCell id="WiAifc5aEcJJbd3fLbBl-8" value="REST over TLS" style="edgeLabel;html=1;align=center;verticalAlign=middle;resizable=0;points=[];rounded=1;fontFamily=Helvetica;fontSize=11;fontColor=default;labelBorderColor=none;labelBackgroundColor=light-dark(#FFFFFF,#3C4253);fillColor=none;gradientColor=none;" vertex="1" connectable="0" parent="OEYN_-mT-tOgrQAeO-wg-22">
          <mxGeometry x="-0.4683" y="1" relative="1" as="geometry">
            <mxPoint as="offset" />
          </mxGeometry>
        </mxCell>
        <mxCell id="euzbrQb_cGi0koqSvOMa-30" value="Mullvad API" style="ellipse;shape=cloud;whiteSpace=wrap;html=1;rounded=1;labelBackgroundColor=none;" parent="WIyWlLk6GJQsqaUBKTNV-1" vertex="1">
          <mxGeometry x="425" y="74" width="120" height="80" as="geometry" />
        </mxCell>
        <mxCell id="1" value="wireguard-go" style="rounded=1;arcSize=10;whiteSpace=wrap;html=1;align=center;labelBackgroundColor=none;" parent="WIyWlLk6GJQsqaUBKTNV-1" vertex="1">
          <mxGeometry x="350" y="436" width="100" height="20" as="geometry" />
        </mxCell>
        <mxCell id="OEYN_-mT-tOgrQAeO-wg-19" style="edgeStyle=orthogonalEdgeStyle;shape=connector;rounded=1;orthogonalLoop=1;jettySize=auto;html=1;entryX=0.25;entryY=0;entryDx=0;entryDy=0;align=center;verticalAlign=middle;fontFamily=Helvetica;fontSize=11;fontColor=default;labelBorderColor=none;labelBackgroundColor=none;resizable=0;endArrow=classic;" parent="WIyWlLk6GJQsqaUBKTNV-1" source="2" target="euzbrQb_cGi0koqSvOMa-24" edge="1">
          <mxGeometry relative="1" as="geometry" />
        </mxCell>
        <mxCell id="2" value="gRPC server" style="rounded=1;arcSize=10;whiteSpace=wrap;html=1;align=center;labelBackgroundColor=none;" parent="WIyWlLk6GJQsqaUBKTNV-1" vertex="1">
          <mxGeometry x="280" y="220" width="80" height="20" as="geometry" />
        </mxCell>
        <mxCell id="OEYN_-mT-tOgrQAeO-wg-17" style="edgeStyle=orthogonalEdgeStyle;rounded=1;orthogonalLoop=1;jettySize=auto;html=1;entryX=0.75;entryY=0;entryDx=0;entryDy=0;fontFamily=Helvetica;fontSize=11;fontColor=default;labelBorderColor=none;labelBackgroundColor=none;resizable=0;" parent="WIyWlLk6GJQsqaUBKTNV-1" source="OEYN_-mT-tOgrQAeO-wg-14" target="euzbrQb_cGi0koqSvOMa-24" edge="1">
          <mxGeometry relative="1" as="geometry" />
        </mxCell>
        <mxCell id="OEYN_-mT-tOgrQAeO-wg-18" value="&lt;div&gt;Wireguard keys&lt;/div&gt;&lt;div&gt;and relay list&lt;/div&gt;" style="edgeLabel;html=1;align=center;verticalAlign=middle;resizable=0;points=[];rounded=1;fontFamily=Helvetica;fontSize=11;labelBorderColor=none;labelBackgroundColor=light-dark(#FFFFFF,#3C4253);fillColor=none;" parent="OEYN_-mT-tOgrQAeO-wg-17" vertex="1" connectable="0">
          <mxGeometry x="-0.4476" y="-3" relative="1" as="geometry">
            <mxPoint as="offset" />
          </mxGeometry>
        </mxCell>
        <mxCell id="OEYN_-mT-tOgrQAeO-wg-14" value="RequestService" style="rounded=1;arcSize=10;whiteSpace=wrap;html=1;align=center;labelBackgroundColor=none;" parent="WIyWlLk6GJQsqaUBKTNV-1" vertex="1">
          <mxGeometry x="435" y="220" width="100" height="20" as="geometry" />
        </mxCell>
        <mxCell id="OEYN_-mT-tOgrQAeO-wg-26" style="edgeStyle=orthogonalEdgeStyle;shape=connector;rounded=1;orthogonalLoop=1;jettySize=auto;html=1;entryX=0.5;entryY=0;entryDx=0;entryDy=0;align=center;verticalAlign=middle;fontFamily=Helvetica;fontSize=11;fontColor=default;labelBorderColor=none;labelBackgroundColor=none;resizable=0;endArrow=classic;" parent="WIyWlLk6GJQsqaUBKTNV-1" edge="1">
          <mxGeometry relative="1" as="geometry">
            <mxPoint x="400" y="393" as="sourcePoint" />
            <mxPoint x="400" y="437" as="targetPoint" />
          </mxGeometry>
        </mxCell>
        <mxCell id="WiAifc5aEcJJbd3fLbBl-3" value="&lt;span style=&quot;&quot;&gt;Wireguard config&lt;/span&gt;" style="edgeLabel;html=1;align=center;verticalAlign=middle;resizable=0;points=[];rounded=1;fontFamily=Helvetica;fontSize=11;fontColor=default;labelBorderColor=none;labelBackgroundColor=light-dark(#FFFFFF,#3C4253);fillColor=none;gradientColor=none;" vertex="1" connectable="0" parent="OEYN_-mT-tOgrQAeO-wg-26">
          <mxGeometry x="-0.1295" relative="1" as="geometry">
            <mxPoint as="offset" />
          </mxGeometry>
        </mxCell>
        <mxCell id="OEYN_-mT-tOgrQAeO-wg-24" value="TSM" style="rounded=1;arcSize=10;whiteSpace=wrap;html=1;align=center;labelBackgroundColor=none;" parent="WIyWlLk6GJQsqaUBKTNV-1" vertex="1">
          <mxGeometry x="350" y="352" width="100" height="40" as="geometry" />
        </mxCell>
        <mxCell id="OEYN_-mT-tOgrQAeO-wg-40" value="Mullvad VPN app" style="swimlane;startSize=20;horizontal=1;containerType=tree;newEdgeStyle={&quot;edgeStyle&quot;:&quot;elbowEdgeStyle&quot;,&quot;startArrow&quot;:&quot;none&quot;,&quot;endArrow&quot;:&quot;none&quot;};rounded=1;align=center;verticalAlign=middle;fontFamily=Helvetica;fontSize=11;labelBorderColor=none;labelBackgroundColor=none;resizable=0;fillColor=none;" parent="WIyWlLk6GJQsqaUBKTNV-1" vertex="1">
          <mxGeometry x="264" y="187" width="280" height="220" as="geometry" />
        </mxCell>
      </root>
    </mxGraphModel>
  </diagram>
</mxfile>
